<mxfile host="app.diagrams.net" modified="2022-09-11T12:45:02.503Z" agent="5.0 (Windows NT 6.1; Win64; x64) AppleWebKit/537.36 (KHTML, like Gecko) Chrome/105.0.0.0 Safari/537.36" etag="O1KOINRUMZbA7mZwpkIP" version="20.3.0" type="github">
  <diagram id="C5RBs43oDa-KdzZeNtuy" name="Page-1">
    <mxGraphModel dx="782" dy="470" grid="1" gridSize="10" guides="1" tooltips="1" connect="1" arrows="1" fold="1" page="1" pageScale="1" pageWidth="827" pageHeight="1169" math="0" shadow="0">
      <root>
        <mxCell id="WIyWlLk6GJQsqaUBKTNV-0" />
        <mxCell id="WIyWlLk6GJQsqaUBKTNV-1" parent="WIyWlLk6GJQsqaUBKTNV-0" />
        <mxCell id="jDneJU6gU1Lfz4TUf1gU-5" style="edgeStyle=orthogonalEdgeStyle;rounded=0;orthogonalLoop=1;jettySize=auto;html=1;fontSize=12;" parent="WIyWlLk6GJQsqaUBKTNV-1" source="WIyWlLk6GJQsqaUBKTNV-3" target="jDneJU6gU1Lfz4TUf1gU-2" edge="1">
          <mxGeometry relative="1" as="geometry" />
        </mxCell>
        <mxCell id="WIyWlLk6GJQsqaUBKTNV-3" value="Input from Harsha/MD" style="rounded=1;whiteSpace=wrap;html=1;fontSize=12;glass=0;strokeWidth=1;shadow=0;" parent="WIyWlLk6GJQsqaUBKTNV-1" vertex="1">
          <mxGeometry x="341.5" y="40" width="120" height="40" as="geometry" />
        </mxCell>
        <mxCell id="jDneJU6gU1Lfz4TUf1gU-0" value="&lt;font style=&quot;font-size: 24px;&quot;&gt;NPD machine&lt;/font&gt;" style="text;html=1;strokeColor=none;fillColor=none;align=center;verticalAlign=middle;whiteSpace=wrap;rounded=0;" parent="WIyWlLk6GJQsqaUBKTNV-1" vertex="1">
          <mxGeometry x="264" width="300" height="30" as="geometry" />
        </mxCell>
        <mxCell id="jDneJU6gU1Lfz4TUf1gU-4" style="edgeStyle=orthogonalEdgeStyle;rounded=0;orthogonalLoop=1;jettySize=auto;html=1;entryX=0.5;entryY=0;entryDx=0;entryDy=0;fontSize=12;" parent="WIyWlLk6GJQsqaUBKTNV-1" source="jDneJU6gU1Lfz4TUf1gU-2" target="jDneJU6gU1Lfz4TUf1gU-3" edge="1">
          <mxGeometry relative="1" as="geometry" />
        </mxCell>
        <mxCell id="jDneJU6gU1Lfz4TUf1gU-2" value="&lt;span style=&quot;font-size: 12px;&quot;&gt;Fill customized machine details input form&lt;/span&gt;" style="rounded=1;whiteSpace=wrap;html=1;fontSize=24;" parent="WIyWlLk6GJQsqaUBKTNV-1" vertex="1">
          <mxGeometry x="306.5" y="100" width="190" height="60" as="geometry" />
        </mxCell>
        <mxCell id="jDneJU6gU1Lfz4TUf1gU-7" style="edgeStyle=orthogonalEdgeStyle;rounded=0;orthogonalLoop=1;jettySize=auto;html=1;fontSize=12;" parent="WIyWlLk6GJQsqaUBKTNV-1" source="jDneJU6gU1Lfz4TUf1gU-3" target="jDneJU6gU1Lfz4TUf1gU-6" edge="1">
          <mxGeometry relative="1" as="geometry" />
        </mxCell>
        <mxCell id="jDneJU6gU1Lfz4TUf1gU-3" value="Prepare 2D layout/ Sketches/Concept" style="rounded=1;whiteSpace=wrap;html=1;fontSize=12;" parent="WIyWlLk6GJQsqaUBKTNV-1" vertex="1">
          <mxGeometry x="341.5" y="180" width="120" height="60" as="geometry" />
        </mxCell>
        <mxCell id="jDneJU6gU1Lfz4TUf1gU-8" style="edgeStyle=orthogonalEdgeStyle;rounded=0;orthogonalLoop=1;jettySize=auto;html=1;fontSize=12;entryX=1;entryY=0.5;entryDx=0;entryDy=0;" parent="WIyWlLk6GJQsqaUBKTNV-1" source="jDneJU6gU1Lfz4TUf1gU-6" target="jDneJU6gU1Lfz4TUf1gU-3" edge="1">
          <mxGeometry relative="1" as="geometry">
            <mxPoint x="611.5" y="140" as="targetPoint" />
            <Array as="points">
              <mxPoint x="521.5" y="300" />
              <mxPoint x="521.5" y="210" />
            </Array>
          </mxGeometry>
        </mxCell>
        <mxCell id="jDneJU6gU1Lfz4TUf1gU-34" style="edgeStyle=orthogonalEdgeStyle;rounded=0;orthogonalLoop=1;jettySize=auto;html=1;entryX=0.5;entryY=0;entryDx=0;entryDy=0;fontSize=12;" parent="WIyWlLk6GJQsqaUBKTNV-1" source="jDneJU6gU1Lfz4TUf1gU-6" target="jDneJU6gU1Lfz4TUf1gU-13" edge="1">
          <mxGeometry relative="1" as="geometry" />
        </mxCell>
        <mxCell id="jDneJU6gU1Lfz4TUf1gU-6" value="Approval from MD/Harsha" style="rounded=1;whiteSpace=wrap;html=1;fontSize=12;" parent="WIyWlLk6GJQsqaUBKTNV-1" vertex="1">
          <mxGeometry x="341.5" y="260" width="120" height="60" as="geometry" />
        </mxCell>
        <mxCell id="jDneJU6gU1Lfz4TUf1gU-9" value="No" style="text;html=1;strokeColor=none;fillColor=none;align=center;verticalAlign=middle;whiteSpace=wrap;rounded=0;fontSize=12;" parent="WIyWlLk6GJQsqaUBKTNV-1" vertex="1">
          <mxGeometry x="461.5" y="275" width="60" height="30" as="geometry" />
        </mxCell>
        <mxCell id="jDneJU6gU1Lfz4TUf1gU-11" value="Yes" style="text;html=1;strokeColor=none;fillColor=none;align=center;verticalAlign=middle;whiteSpace=wrap;rounded=0;fontSize=12;" parent="WIyWlLk6GJQsqaUBKTNV-1" vertex="1">
          <mxGeometry x="391.5" y="320" width="60" height="30" as="geometry" />
        </mxCell>
        <mxCell id="jDneJU6gU1Lfz4TUf1gU-22" style="edgeStyle=orthogonalEdgeStyle;rounded=0;orthogonalLoop=1;jettySize=auto;html=1;fontSize=12;entryX=0.5;entryY=0;entryDx=0;entryDy=0;" parent="WIyWlLk6GJQsqaUBKTNV-1" source="jDneJU6gU1Lfz4TUf1gU-14" target="jDneJU6gU1Lfz4TUf1gU-23" edge="1">
          <mxGeometry relative="1" as="geometry">
            <mxPoint x="401.5" y="640" as="targetPoint" />
          </mxGeometry>
        </mxCell>
        <mxCell id="jDneJU6gU1Lfz4TUf1gU-36" style="edgeStyle=orthogonalEdgeStyle;rounded=0;orthogonalLoop=1;jettySize=auto;html=1;entryX=1;entryY=0.5;entryDx=0;entryDy=0;fontSize=12;" parent="WIyWlLk6GJQsqaUBKTNV-1" source="jDneJU6gU1Lfz4TUf1gU-14" target="jDneJU6gU1Lfz4TUf1gU-13" edge="1">
          <mxGeometry relative="1" as="geometry">
            <Array as="points">
              <mxPoint x="521.5" y="470" />
              <mxPoint x="521.5" y="380" />
            </Array>
          </mxGeometry>
        </mxCell>
        <mxCell id="jDneJU6gU1Lfz4TUf1gU-14" value="Get approval" style="rounded=1;whiteSpace=wrap;html=1;fontSize=12;" parent="WIyWlLk6GJQsqaUBKTNV-1" vertex="1">
          <mxGeometry x="341.5" y="440" width="120" height="40" as="geometry" />
        </mxCell>
        <mxCell id="jDneJU6gU1Lfz4TUf1gU-17" value="No" style="text;html=1;strokeColor=none;fillColor=none;align=center;verticalAlign=middle;whiteSpace=wrap;rounded=0;fontSize=12;" parent="WIyWlLk6GJQsqaUBKTNV-1" vertex="1">
          <mxGeometry x="461.5" y="440" width="60" height="30" as="geometry" />
        </mxCell>
        <mxCell id="jDneJU6gU1Lfz4TUf1gU-44" style="edgeStyle=orthogonalEdgeStyle;rounded=0;orthogonalLoop=1;jettySize=auto;html=1;fontSize=12;" parent="WIyWlLk6GJQsqaUBKTNV-1" source="jDneJU6gU1Lfz4TUf1gU-23" target="jDneJU6gU1Lfz4TUf1gU-42" edge="1">
          <mxGeometry relative="1" as="geometry" />
        </mxCell>
        <mxCell id="jDneJU6gU1Lfz4TUf1gU-23" value="Modelling" style="rounded=1;whiteSpace=wrap;html=1;fontSize=12;" parent="WIyWlLk6GJQsqaUBKTNV-1" vertex="1">
          <mxGeometry x="341.5" y="530" width="120" height="40" as="geometry" />
        </mxCell>
        <mxCell id="jDneJU6gU1Lfz4TUf1gU-24" value="Yes" style="text;html=1;strokeColor=none;fillColor=none;align=center;verticalAlign=middle;whiteSpace=wrap;rounded=0;fontSize=12;" parent="WIyWlLk6GJQsqaUBKTNV-1" vertex="1">
          <mxGeometry x="391.5" y="490" width="60" height="30" as="geometry" />
        </mxCell>
        <mxCell id="jDneJU6gU1Lfz4TUf1gU-39" style="edgeStyle=orthogonalEdgeStyle;rounded=0;orthogonalLoop=1;jettySize=auto;html=1;entryX=0.5;entryY=0;entryDx=0;entryDy=0;fontSize=12;" parent="WIyWlLk6GJQsqaUBKTNV-1" source="jDneJU6gU1Lfz4TUf1gU-25" target="jDneJU6gU1Lfz4TUf1gU-27" edge="1">
          <mxGeometry relative="1" as="geometry" />
        </mxCell>
        <mxCell id="jDneJU6gU1Lfz4TUf1gU-25" value="Major Bom Release&amp;nbsp;" style="rounded=1;whiteSpace=wrap;html=1;fontSize=12;" parent="WIyWlLk6GJQsqaUBKTNV-1" vertex="1">
          <mxGeometry x="341.5" y="720" width="120" height="30" as="geometry" />
        </mxCell>
        <mxCell id="jDneJU6gU1Lfz4TUf1gU-37" style="edgeStyle=orthogonalEdgeStyle;rounded=0;orthogonalLoop=1;jettySize=auto;html=1;fontSize=12;" parent="WIyWlLk6GJQsqaUBKTNV-1" source="jDneJU6gU1Lfz4TUf1gU-27" target="jDneJU6gU1Lfz4TUf1gU-28" edge="1">
          <mxGeometry relative="1" as="geometry" />
        </mxCell>
        <mxCell id="jDneJU6gU1Lfz4TUf1gU-27" value="Machining drawings&lt;br&gt;*Master copy&lt;br&gt;*PDF for other department reference" style="rounded=1;whiteSpace=wrap;html=1;fontSize=12;" parent="WIyWlLk6GJQsqaUBKTNV-1" vertex="1">
          <mxGeometry x="331.5" y="770" width="140" height="60" as="geometry" />
        </mxCell>
        <mxCell id="jDneJU6gU1Lfz4TUf1gU-49" style="edgeStyle=orthogonalEdgeStyle;rounded=0;orthogonalLoop=1;jettySize=auto;html=1;fontSize=12;" parent="WIyWlLk6GJQsqaUBKTNV-1" source="jDneJU6gU1Lfz4TUf1gU-28" target="jDneJU6gU1Lfz4TUf1gU-30" edge="1">
          <mxGeometry relative="1" as="geometry">
            <mxPoint x="401.5" y="840" as="targetPoint" />
          </mxGeometry>
        </mxCell>
        <mxCell id="jDneJU6gU1Lfz4TUf1gU-28" value="Nesting release to&amp;nbsp; accucut" style="rounded=1;whiteSpace=wrap;html=1;fontSize=12;" parent="WIyWlLk6GJQsqaUBKTNV-1" vertex="1">
          <mxGeometry x="341.5" y="850" width="120" height="50" as="geometry" />
        </mxCell>
        <mxCell id="jDneJU6gU1Lfz4TUf1gU-41" style="edgeStyle=orthogonalEdgeStyle;rounded=0;orthogonalLoop=1;jettySize=auto;html=1;fontSize=12;" parent="WIyWlLk6GJQsqaUBKTNV-1" source="jDneJU6gU1Lfz4TUf1gU-30" target="jDneJU6gU1Lfz4TUf1gU-40" edge="1">
          <mxGeometry relative="1" as="geometry" />
        </mxCell>
        <mxCell id="jDneJU6gU1Lfz4TUf1gU-30" value="Bending drawings to accucut" style="rounded=1;whiteSpace=wrap;html=1;fontSize=12;" parent="WIyWlLk6GJQsqaUBKTNV-1" vertex="1">
          <mxGeometry x="341.5" y="930" width="120" height="50" as="geometry" />
        </mxCell>
        <mxCell id="jDneJU6gU1Lfz4TUf1gU-35" style="edgeStyle=orthogonalEdgeStyle;rounded=0;orthogonalLoop=1;jettySize=auto;html=1;fontSize=12;" parent="WIyWlLk6GJQsqaUBKTNV-1" source="jDneJU6gU1Lfz4TUf1gU-13" target="jDneJU6gU1Lfz4TUf1gU-14" edge="1">
          <mxGeometry relative="1" as="geometry" />
        </mxCell>
        <mxCell id="jDneJU6gU1Lfz4TUf1gU-13" value="Prepare quote for the project" style="rounded=1;whiteSpace=wrap;html=1;fontSize=12;" parent="WIyWlLk6GJQsqaUBKTNV-1" vertex="1">
          <mxGeometry x="341.5" y="350" width="120" height="60" as="geometry" />
        </mxCell>
        <mxCell id="jDneJU6gU1Lfz4TUf1gU-58" style="edgeStyle=orthogonalEdgeStyle;rounded=0;orthogonalLoop=1;jettySize=auto;html=1;fontSize=12;" parent="WIyWlLk6GJQsqaUBKTNV-1" source="jDneJU6gU1Lfz4TUf1gU-40" target="jDneJU6gU1Lfz4TUf1gU-57" edge="1">
          <mxGeometry relative="1" as="geometry" />
        </mxCell>
        <mxCell id="jDneJU6gU1Lfz4TUf1gU-40" value="Fabrication drawings&lt;br&gt;*Master copy&lt;br&gt;*xerox of master copy - Reference copy" style="rounded=1;whiteSpace=wrap;html=1;fontSize=12;" parent="WIyWlLk6GJQsqaUBKTNV-1" vertex="1">
          <mxGeometry x="341.5" y="1000" width="120" height="70" as="geometry" />
        </mxCell>
        <mxCell id="jDneJU6gU1Lfz4TUf1gU-46" style="edgeStyle=orthogonalEdgeStyle;rounded=0;orthogonalLoop=1;jettySize=auto;html=1;entryX=1;entryY=0.5;entryDx=0;entryDy=0;fontSize=12;" parent="WIyWlLk6GJQsqaUBKTNV-1" source="jDneJU6gU1Lfz4TUf1gU-42" target="jDneJU6gU1Lfz4TUf1gU-23" edge="1">
          <mxGeometry relative="1" as="geometry">
            <Array as="points">
              <mxPoint x="521.5" y="630" />
              <mxPoint x="521.5" y="550" />
            </Array>
          </mxGeometry>
        </mxCell>
        <mxCell id="jDneJU6gU1Lfz4TUf1gU-55" style="edgeStyle=orthogonalEdgeStyle;rounded=0;orthogonalLoop=1;jettySize=auto;html=1;fontSize=12;" parent="WIyWlLk6GJQsqaUBKTNV-1" source="jDneJU6gU1Lfz4TUf1gU-42" target="jDneJU6gU1Lfz4TUf1gU-54" edge="1">
          <mxGeometry relative="1" as="geometry" />
        </mxCell>
        <mxCell id="jDneJU6gU1Lfz4TUf1gU-42" value="Brain storm/Freeze the model" style="rounded=1;whiteSpace=wrap;html=1;fontSize=12;" parent="WIyWlLk6GJQsqaUBKTNV-1" vertex="1">
          <mxGeometry x="341.5" y="600" width="120" height="40" as="geometry" />
        </mxCell>
        <mxCell id="jDneJU6gU1Lfz4TUf1gU-45" value="Yes" style="text;html=1;strokeColor=none;fillColor=none;align=center;verticalAlign=middle;whiteSpace=wrap;rounded=0;fontSize=12;" parent="WIyWlLk6GJQsqaUBKTNV-1" vertex="1">
          <mxGeometry x="391.5" y="640" width="60" height="30" as="geometry" />
        </mxCell>
        <mxCell id="jDneJU6gU1Lfz4TUf1gU-47" value="No" style="text;html=1;strokeColor=none;fillColor=none;align=center;verticalAlign=middle;whiteSpace=wrap;rounded=0;fontSize=12;" parent="WIyWlLk6GJQsqaUBKTNV-1" vertex="1">
          <mxGeometry x="461.5" y="600" width="60" height="30" as="geometry" />
        </mxCell>
        <mxCell id="jDneJU6gU1Lfz4TUf1gU-56" style="edgeStyle=orthogonalEdgeStyle;rounded=0;orthogonalLoop=1;jettySize=auto;html=1;fontSize=12;" parent="WIyWlLk6GJQsqaUBKTNV-1" source="jDneJU6gU1Lfz4TUf1gU-54" target="jDneJU6gU1Lfz4TUf1gU-25" edge="1">
          <mxGeometry relative="1" as="geometry" />
        </mxCell>
        <mxCell id="jDneJU6gU1Lfz4TUf1gU-54" value="Renaming" style="rounded=1;whiteSpace=wrap;html=1;fontSize=12;" parent="WIyWlLk6GJQsqaUBKTNV-1" vertex="1">
          <mxGeometry x="341.5" y="670" width="120" height="30" as="geometry" />
        </mxCell>
        <mxCell id="jDneJU6gU1Lfz4TUf1gU-57" value="Minor Bom Release&amp;nbsp;" style="rounded=1;whiteSpace=wrap;html=1;fontSize=12;" parent="WIyWlLk6GJQsqaUBKTNV-1" vertex="1">
          <mxGeometry x="341.5" y="1090" width="120" height="30" as="geometry" />
        </mxCell>
      </root>
    </mxGraphModel>
  </diagram>
</mxfile>
